<svg width="20" height="20" viewBox="0 0 20 20" fill="none" xmlns="http://www.w3.org/2000/svg"><script xmlns=""/>
<path d="M9.76958 3.33333C9.9239 3.33333 10.0782 3.33333 10.2325 3.33333C10.2753 3.34179 10.3179 3.35041 10.3606 3.35841C11.3757 3.54873 12.07 4.50787 11.9123 5.52717C11.8023 6.2386 11.3957 6.73495 10.7361 7.02435C10.6744 7.05143 10.6526 7.08405 10.6528 7.15005C10.6546 7.97041 10.654 8.79078 10.6541 9.61099C10.6541 9.711 10.6566 9.7133 10.7595 9.7133C12.0092 9.7133 13.2588 9.713 14.5085 9.71376C14.5861 9.71376 14.6623 9.70499 14.7378 9.68992C15.3467 9.56806 15.7597 9.02833 15.7561 8.46537C15.7534 8.03473 15.7537 7.60408 15.7582 7.17344C15.7591 7.0882 15.7307 7.04681 15.6523 7.0142C14.9386 6.7171 14.4188 5.97259 14.4852 5.1196C14.5328 4.50587 14.8134 4.02399 15.3123 3.66689C15.5745 3.47918 15.8719 3.37887 16.1893 3.33333C16.3386 3.33333 16.4876 3.33333 16.6369 3.33333C16.6467 3.3361 16.6563 3.34025 16.6663 3.34164C17.1977 3.41733 17.6267 3.66812 17.9538 4.09138C18.1673 4.3674 18.2844 4.68327 18.3344 5.02575C18.3344 5.17961 18.3344 5.33347 18.3344 5.48732C18.3318 5.49717 18.3282 5.50686 18.3265 5.51702C18.2041 6.24014 17.8014 6.74325 17.1278 7.03204C17.0727 7.05558 17.0583 7.08912 17.0586 7.14405C17.0603 7.46961 17.0615 7.79533 17.0586 8.12089C17.0568 8.32305 17.0686 8.52538 17.0458 8.7277C16.9815 9.29774 16.7528 9.793 16.358 10.207C15.8466 10.7434 15.2123 11.0115 14.4713 11.0143C13.2421 11.0188 12.0129 11.0155 10.7838 11.0155C10.6543 11.0155 10.6543 11.0157 10.6543 11.1479C10.6543 11.9478 10.6558 12.7477 10.6523 13.5476C10.6518 13.638 10.6795 13.6808 10.7643 13.717C11.5466 14.049 12.019 14.8533 11.9216 15.6756C11.839 16.373 11.4774 16.8798 10.8565 17.205C10.6563 17.3098 10.4396 17.3627 10.2174 17.3958C10.0734 17.3958 9.9293 17.3958 9.78532 17.3958C9.74241 17.388 9.69967 17.38 9.65677 17.3724C8.63964 17.1937 7.92837 16.2205 8.08794 15.2083C8.19951 14.5004 8.59751 14.0016 9.25353 13.7108C9.32698 13.6782 9.35028 13.6402 9.34998 13.562C9.3472 12.7543 9.34828 11.9465 9.34828 11.1388C9.34828 11.0157 9.34812 11.0155 9.22498 11.0155C7.60723 11.0155 5.98948 11.0155 4.37158 11.0155C4.24597 11.0155 4.24566 11.0157 4.24566 11.1379C4.2455 11.943 4.24674 12.7483 4.2438 13.5534C4.2435 13.6371 4.26834 13.6799 4.34766 13.7142C5.14149 14.0571 5.60522 14.8309 5.51124 15.6846C5.44149 16.3181 5.11896 16.8026 4.57343 17.1366C4.33979 17.2797 4.08192 17.3546 3.81294 17.3958C3.66371 17.3958 3.51464 17.3958 3.36541 17.3958C3.35306 17.3928 3.34087 17.3884 3.32837 17.3866C2.80059 17.3086 2.37359 17.059 2.04843 16.6378C1.83516 16.3618 1.71695 16.0464 1.66772 15.7034C1.66772 15.5495 1.66772 15.3957 1.66772 15.2418C1.67081 15.2294 1.67467 15.2172 1.67683 15.2046C1.79967 14.4881 2.19967 13.9884 2.86618 13.7003C2.93192 13.672 2.9438 13.6331 2.94365 13.5706C2.94257 11.4333 2.94242 9.29574 2.94442 7.15836C2.94442 7.08451 2.91927 7.05081 2.85198 7.02297C2.4472 6.85495 2.13347 6.58094 1.91171 6.20306C1.78146 5.98105 1.70862 5.73965 1.66772 5.48732C1.66772 5.33347 1.66772 5.17961 1.66772 5.02575C1.67112 5.00821 1.67498 4.99083 1.67791 4.97329C1.7722 4.39279 2.06587 3.94137 2.56063 3.62104C2.806 3.46211 3.07822 3.37702 3.36526 3.33333C3.51448 3.33333 3.66356 3.33333 3.81279 3.33333C3.85816 3.34164 3.90337 3.34994 3.94874 3.35841C4.92745 3.54057 5.6347 4.44664 5.50862 5.47224C5.41896 6.20183 5.01402 6.71648 4.34118 7.01696C4.26803 7.04958 4.24319 7.08835 4.2435 7.16621C4.24596 7.97626 4.24488 8.78632 4.24504 9.59637C4.24504 9.71161 4.2472 9.71346 4.36078 9.71346C5.98578 9.71346 7.61078 9.71346 9.23578 9.71346C9.34751 9.71346 9.34797 9.71315 9.34797 9.60237C9.34812 8.79232 9.34674 7.98226 9.34998 7.17221C9.35028 7.08666 9.32189 7.04712 9.2438 7.0145C8.46093 6.68771 7.98794 5.89058 8.08115 5.05237C8.15383 4.39802 8.48547 3.90814 9.05075 3.5735C9.27251 3.44226 9.5168 3.3741 9.76958 3.33333Z" fill="#959595"/>
</svg>