<svg width="99" height="44" viewBox="0 0 99 44" fill="none" xmlns="http://www.w3.org/2000/svg"><script xmlns=""/>
<g clip-path="url(#clip0_57_620)">
<path d="M3.54348 37.1063H5.07739L5.0987 36.4955C5.11087 36.1382 5.11696 35.8173 5.11696 35.5175C5.11696 30.1989 9.81609 25.8737 15.5911 25.8737C21.3661 25.8737 26.0652 30.2003 26.0652 35.5175C26.0652 35.8131 26.0713 36.1326 26.0835 36.4941L26.1033 37.105H67.7867L67.8065 36.4941C67.8202 36.1004 67.8263 35.7501 67.8263 35.4236C67.8263 30.2367 72.7841 25.6859 78.4374 25.6859C84.0906 25.6859 89.0485 30.2367 89.0485 35.4236C89.0485 35.7487 89.0546 36.0877 89.0667 36.4927L89.0865 37.105H93.4767C95.1126 37.105 96.6983 35.7739 96.4441 34.3728C96.19 32.9717 93.7035 21.697 93.7035 21.697C93.3489 20.3155 92.3735 19.3473 90.8106 19.0321L71.7783 15.4298C70.5776 14.6032 60.9754 7.99974 60.1522 7.38045C59.4156 6.82701 56.8165 5.02098 54.3422 5.02098H26.9767C26.3696 5.02098 25.7776 5.0378 25.1993 5.07283L22.5393 1.19596C22.337 0.901728 21.9139 0.813458 21.5943 0.999805C21.2748 1.18615 21.1789 1.57566 21.3813 1.86989L23.67 5.20593C13.0376 6.41369 7.60957 13.401 4.02891 19.5617C0.576088 25.5038 0.576088 30.0139 0.576088 34.3742C0.576088 35.8299 1.96239 37.1063 3.54348 37.1063ZM5.23717 20.1544C5.26457 20.1067 5.29196 20.0591 5.32087 20.0128H8.62304C8.68544 20.1095 8.71739 20.2608 8.71739 20.4794C8.71739 20.9432 8.71739 22.3569 5.45783 22.7436C5.08348 22.7884 4.81717 23.1037 4.86587 23.4498C4.91 23.7678 5.20522 24.0004 5.54457 24.0004C5.57348 24.0004 5.60391 23.999 5.63283 23.9948C9.50717 23.5352 10.087 21.5961 10.087 20.4808C10.087 20.3113 10.0733 20.1572 10.0474 20.0142H17.6196C17.9985 20.0142 18.3043 19.7326 18.3043 19.3837C18.3043 19.0349 17.9985 18.7532 17.6196 18.7532H6.08174C9.86783 12.671 15.7265 6.28338 26.9783 6.28338H34.278C34.0513 9.00573 32.8567 23.3769 32.7624 24.834C32.5935 27.4219 33.1063 29.2601 34.3283 30.4567C35.532 31.6336 37.4326 32.2053 40.1413 32.2053H54.75C55.1289 32.2053 55.4348 31.9237 55.4348 31.5748C55.4348 31.2259 55.1289 30.9443 54.75 30.9443H40.1413C37.8313 30.9443 36.2563 30.5015 35.325 29.5922C34.3754 28.6633 33.9843 27.1319 34.1289 24.9097C34.2233 23.4652 35.4528 8.67507 35.6522 6.28338H54.3452C56.4193 6.28338 58.8267 8.01235 59.2893 8.35982C60.1872 9.03376 70.64 16.2214 71.0843 16.5269L71.2061 16.6109L88.0091 19.7915C88.0046 19.912 88 20.0339 88 20.1544C88 22.993 89.1778 25.4421 90.9309 26.2492C91.0298 26.294 91.1333 26.3164 91.2367 26.3164C91.4878 26.3164 91.7298 26.1889 91.85 25.9675C92.0189 25.6565 91.882 25.2768 91.5441 25.1213C90.4637 24.6239 89.3696 22.7576 89.3696 20.1529C89.3696 20.1179 89.3711 20.0829 89.3726 20.0479L90.7391 20.2931C91.6141 20.4682 92.1589 20.9712 92.337 21.7642L94.3167 30.9415H92.0326C91.6537 30.9415 91.3478 31.2231 91.3478 31.572C91.3478 31.9209 91.6537 32.2025 92.0326 32.2025H94.4674C94.5085 32.2025 94.5496 32.1983 94.5876 32.1913C94.5876 32.1913 95.0152 33.7871 95.0746 34.4316C95.1324 35.0747 94.338 35.8454 93.4783 35.8454H90.4226C90.4196 35.6996 90.4196 35.5609 90.4196 35.425C90.4196 32.5331 89.1033 29.7687 86.7126 27.6405C84.4178 25.5977 81.4033 24.4263 78.4374 24.4263C75.4715 24.4263 72.457 25.5977 70.1622 27.6405C67.7715 29.7687 66.4552 32.5331 66.4552 35.425C66.4552 35.5595 66.4552 35.6996 66.4522 35.8454H27.4378C27.4363 35.7319 27.4348 35.624 27.4348 35.5189C27.4348 29.5053 22.1209 24.6141 15.5911 24.6141C9.06131 24.6141 3.74587 29.5053 3.74587 35.5189C3.74587 35.6254 3.74587 35.7333 3.74283 35.8454H3.54196C2.64261 35.8454 1.94413 35.0551 1.94413 34.3742C1.94413 33.6456 1.94413 32.9254 1.95935 32.2025H2.705C3.08391 32.2025 3.38978 31.9209 3.38978 31.572C3.38978 31.2231 3.08391 30.9415 2.705 30.9415H2.00348C2.16935 27.6979 2.80544 24.3381 5.23565 20.1544H5.23717Z" fill="#263544"/>
<path d="M66.65 26.7536C66.6028 27.0996 66.8691 27.4135 67.245 27.4569C67.2739 27.4597 67.3028 27.4625 67.3302 27.4625C67.6711 27.4625 67.9648 27.2285 68.0089 26.9105C68.5263 23.0981 67.1385 18.1045 67.0791 17.8944C66.9848 17.5567 66.6104 17.3549 66.2437 17.4418C65.877 17.5287 65.6578 17.8733 65.7522 18.211C65.7659 18.26 67.1339 23.1793 66.6485 26.755L66.65 26.7536Z" fill="#263544"/>
<path d="M63.1196 14.198C63.1196 12.7661 60.0274 10.5818 58.183 9.40625L58.0111 9.29556C56.7252 8.47311 55.7102 7.823 52.9757 7.823H39.9146C38.2878 7.823 36.9624 9.03496 36.9472 10.5299L36.6443 14.1504V14.1994C36.6428 15.7056 37.9728 16.9316 39.6102 16.9316H60.458C62.0011 16.9316 63.1211 15.7827 63.1211 14.1994L63.1196 14.198ZM38.0109 14.2205L38.3137 10.6042V10.5552C38.3152 9.74392 39.032 9.084 39.913 9.084H52.9741C55.2796 9.084 56.0557 9.57999 57.2289 10.331L57.4039 10.4431C60.0883 12.1538 61.75 13.7245 61.75 14.198C61.75 14.8762 61.4107 15.6692 60.4565 15.6692H39.6087C38.7352 15.6692 38.0246 15.0219 38.0109 14.2205Z" fill="#263544"/>
<path d="M15.4891 31.3618C12.9722 31.3618 10.9239 33.2477 10.9239 35.5651C10.9239 37.8826 12.9722 39.7685 15.4891 39.7685C18.0061 39.7685 20.0543 37.8826 20.0543 35.5651C20.0543 33.2477 18.0061 31.3618 15.4891 31.3618ZM15.4891 38.5075C13.727 38.5075 12.2935 37.1876 12.2935 35.5651C12.2935 33.9427 13.727 32.6228 15.4891 32.6228C17.2513 32.6228 18.6848 33.9427 18.6848 35.5651C18.6848 37.1876 17.2513 38.5075 15.4891 38.5075Z" fill="#263544"/>
<path d="M78.3369 31.3618C75.82 31.3618 73.7717 33.2477 73.7717 35.5651C73.7717 37.8826 75.82 39.7685 78.3369 39.7685C80.8539 39.7685 82.9022 37.8826 82.9022 35.5651C82.9022 33.2477 80.8539 31.3618 78.3369 31.3618ZM78.3369 38.5075C76.5748 38.5075 75.1413 37.1876 75.1413 35.5651C75.1413 33.9427 76.5748 32.6228 78.3369 32.6228C80.0991 32.6228 81.5326 33.9427 81.5326 35.5651C81.5326 37.1876 80.0991 38.5075 78.3369 38.5075Z" fill="#263544"/>
<path d="M44.7065 18.7517H37.25C36.8711 18.7517 36.5652 19.0333 36.5652 19.3822C36.5652 19.7311 36.8711 20.0127 37.25 20.0127H44.7065C45.0854 20.0127 45.3913 19.7311 45.3913 19.3822C45.3913 19.0333 45.0854 18.7517 44.7065 18.7517Z" fill="#263544"/>
<path d="M31.6896 14.5077C31.8843 13.4484 32.3333 9.58838 32.4535 8.44368C32.4717 8.26714 32.4093 8.0906 32.2785 7.95889C32.1491 7.82719 31.965 7.75293 31.7717 7.75293C19.8443 7.75293 13.8 11.1898 12.2478 14.1336C11.8613 14.8664 11.8278 15.4758 12.1474 15.9452C12.4654 16.4132 13.0787 16.6514 13.9674 16.6514H28.6902C30.5178 16.6514 31.4141 16.0111 31.6896 14.5091V14.5077ZM13.3085 15.2755C13.3085 15.2755 13.2491 15.12 13.4789 14.6828C14.5654 12.6218 19.4776 9.16385 31.0124 9.01813C30.8389 10.565 30.498 13.426 30.3383 14.2975C30.2028 15.0401 29.9959 15.389 28.6887 15.389H13.9659C13.4333 15.389 13.3085 15.2755 13.307 15.2755H13.3085Z" fill="#263544"/>
<path d="M27.8152 42.0102H21.2246C23.2485 40.4802 24.5435 38.1586 24.5435 35.5651C24.5435 30.9681 20.482 27.2285 15.4891 27.2285C10.4963 27.2285 6.43478 30.9681 6.43478 35.5651C6.43478 38.1586 7.72826 40.4802 9.7537 42.0102H1.18478C0.80587 42.0102 0.5 42.2918 0.5 42.6407C0.5 42.9896 0.80587 43.2712 1.18478 43.2712H11.9891C12.0028 43.2712 12.015 43.2684 12.0287 43.267C13.0954 43.6747 14.2641 43.9017 15.4891 43.9017C16.7141 43.9017 17.8828 43.6747 18.9496 43.267C18.9633 43.267 18.9754 43.2712 18.9891 43.2712H27.8152C28.1941 43.2712 28.5 42.9896 28.5 42.6407C28.5 42.2918 28.1941 42.0102 27.8152 42.0102ZM7.80435 35.5651C7.80435 31.663 11.2511 28.4895 15.4891 28.4895C19.7272 28.4895 23.1739 31.663 23.1739 35.5651C23.1739 39.4672 19.7272 42.6407 15.4891 42.6407C11.2511 42.6407 7.80435 39.4672 7.80435 35.5651Z" fill="#263544"/>
<path d="M97.8152 42.0102H84.0724C86.0963 40.4802 87.3913 38.1586 87.3913 35.5651C87.3913 30.9681 83.3298 27.2285 78.337 27.2285C73.3441 27.2285 69.2826 30.9681 69.2826 35.5651C69.2826 38.1586 70.5761 40.4802 72.6015 42.0102H66.0109C65.6319 42.0102 65.3261 42.2918 65.3261 42.6407C65.3261 42.9896 65.6319 43.2712 66.0109 43.2712H74.837C74.8506 43.2712 74.8628 43.2684 74.8765 43.267C75.9433 43.6747 77.112 43.9017 78.337 43.9017C79.562 43.9017 80.7306 43.6747 81.7974 43.267C81.8111 43.267 81.8233 43.2712 81.837 43.2712H97.8152C98.1941 43.2712 98.5 42.9896 98.5 42.6407C98.5 42.2918 98.1941 42.0102 97.8152 42.0102ZM70.6522 35.5651C70.6522 31.663 74.0989 28.4895 78.337 28.4895C82.575 28.4895 86.0217 31.663 86.0217 35.5651C86.0217 39.4672 82.575 42.6407 78.337 42.6407C74.0989 42.6407 70.6522 39.4672 70.6522 35.5651Z" fill="#263544"/>
<path d="M16.463 35.5552L17.1615 34.9121C17.4294 34.6655 17.4294 34.2662 17.1615 34.021C16.8937 33.7744 16.46 33.7744 16.1937 34.021L15.4952 34.6641L14.7785 34.0028C14.5107 33.7562 14.077 33.7562 13.8107 34.0028C13.5428 34.2494 13.5428 34.6487 13.8107 34.8939L14.5289 35.5552L13.8289 36.1998C13.5611 36.4463 13.5611 36.8457 13.8289 37.0909C13.9628 37.2142 14.1378 37.2758 14.3128 37.2758C14.4878 37.2758 14.6628 37.2142 14.7967 37.0909L15.4967 36.4464L16.2089 37.1035C16.3428 37.2268 16.5178 37.2884 16.6928 37.2884C16.8678 37.2884 17.0428 37.2268 17.1767 37.1035C17.4446 36.8569 17.4446 36.4576 17.1767 36.2124L16.4646 35.5552H16.463Z" fill="#263544"/>
<path d="M79.3109 35.5552L80.0093 34.9121C80.2772 34.6655 80.2772 34.2662 80.0093 34.021C79.7415 33.7744 79.3078 33.7744 79.0415 34.021L78.343 34.6641L77.6263 34.0028C77.3585 33.7562 76.9263 33.7562 76.6585 34.0028C76.3907 34.2494 76.3907 34.6487 76.6585 34.8939L77.3767 35.5552L76.6767 36.1998C76.4089 36.4463 76.4089 36.8457 76.6767 37.0909C76.8107 37.2142 76.9857 37.2758 77.1607 37.2758C77.3357 37.2758 77.5107 37.2142 77.6446 37.0909L78.3446 36.4464L79.0567 37.1035C79.1907 37.2268 79.3657 37.2884 79.5407 37.2884C79.7157 37.2884 79.8907 37.2268 80.0246 37.1035C80.2924 36.8569 80.2924 36.4576 80.0246 36.2124L79.3124 35.5552H79.3109Z" fill="#263544"/>
</g>
<defs>
<clipPath id="clip0_57_620">
<rect width="98" height="43" fill="white" transform="translate(0.5 0.901611)"/>
</clipPath>
</defs>
</svg>