<svg width="20" height="20" viewBox="0 0 20 20" fill="none" xmlns="http://www.w3.org/2000/svg"><script xmlns=""/>
<path d="M9.41673 17.6328C7.19404 17.6328 4.97135 17.633 2.74845 17.6326C2.51468 17.6326 2.28324 17.6123 2.06701 17.514C1.81063 17.3977 1.66881 17.2128 1.66944 16.9143C1.67388 14.5894 1.67768 12.2646 1.66775 9.93958C1.66543 9.41794 1.82078 8.95717 2.08181 8.52092C2.30057 8.15547 2.59014 7.8473 2.88605 7.54463C4.04199 6.36269 5.37442 5.42213 6.83451 4.65551C7.72858 4.18629 8.6571 3.79886 9.61457 3.48097C10.6858 3.12525 11.7806 2.864 12.8943 2.68118C13.5823 2.56852 14.2741 2.48757 14.9688 2.43346C15.8715 2.36307 16.7766 2.34976 17.6817 2.36836C18.0932 2.37681 18.3764 2.73275 18.3293 3.14321C18.2739 3.62533 18.2335 4.10914 18.186 4.59211C18.1401 5.05774 18.0923 5.52316 18.0471 5.98879C18.0008 6.46499 17.9571 6.94119 17.911 7.41739C17.8668 7.87605 17.8214 8.33471 17.7761 8.79336C17.7372 9.18882 17.6977 9.58428 17.6588 9.97995C17.6115 10.4595 17.5643 10.9391 17.5174 11.4187C17.4726 11.8774 17.4287 12.336 17.3836 12.7945C17.3373 13.2671 17.2898 13.7395 17.2433 14.2121C17.205 14.6006 17.1697 14.9895 17.1296 15.3779C17.075 15.9061 17.0438 16.4375 16.9603 16.9619C16.8901 17.4022 16.5936 17.6332 16.1484 17.633C13.9046 17.6326 11.6606 17.6328 9.41673 17.6328ZM4.04833 9.87004C4.0739 9.90365 4.11068 9.90386 4.14281 9.91063C4.41187 9.96854 4.68115 10.0013 4.95909 9.9808C5.55154 9.93705 6.0419 9.69482 6.43546 9.25477C6.49126 9.19242 6.54812 9.17212 6.62759 9.17212C8.86402 9.17339 11.1007 9.17318 13.3371 9.17297C14.4112 9.17297 15.4856 9.1717 16.5597 9.17487C16.6633 9.17508 16.6982 9.14676 16.7037 9.0396C16.7168 8.7904 16.7472 8.54226 16.7696 8.29349C16.81 7.84857 16.8499 7.40386 16.8895 6.95895C16.921 6.60512 16.952 6.25109 16.9823 5.89727C17.022 5.43481 17.0621 4.97235 17.0993 4.50967C17.1262 4.17657 17.1454 3.84283 17.1746 3.51014C17.1896 3.3402 17.1854 3.32837 17.0146 3.32604C16.4194 3.31759 15.8257 3.33851 15.2317 3.3829C14.6805 3.42412 14.1318 3.48393 13.5857 3.56531C12.7603 3.68811 11.9434 3.85466 11.1362 4.06814C9.91027 4.39237 8.72368 4.8208 7.58908 5.38852C6.68233 5.84232 5.82864 6.38045 5.03835 7.01686C4.87391 7.14938 4.71518 7.28909 4.55687 7.42881C4.46154 7.51293 4.4645 7.51525 4.56828 7.57866C4.6133 7.60614 4.65853 7.63362 4.70081 7.66532C5.17215 8.01808 5.39873 8.4983 5.43973 9.07722C5.44713 9.18206 5.39682 9.24927 5.32644 9.3131C5.07872 9.5382 4.78958 9.68574 4.46873 9.77261C4.33134 9.80959 4.19079 9.83728 4.04833 9.87004ZM9.40025 16.5261C9.40025 16.5263 9.40025 16.5263 9.40025 16.5265C11.5625 16.5265 13.7247 16.5265 15.887 16.5261C15.9324 16.5261 15.9793 16.5265 16.0233 16.5163C16.1205 16.4942 16.1954 16.4085 16.1888 16.3365C16.1808 16.2492 16.1062 16.1957 15.9869 16.1934C15.913 16.1919 15.839 16.1925 15.765 16.1925C14.5465 16.1925 13.3282 16.193 12.1097 16.193C9.05298 16.193 5.99625 16.1927 2.93973 16.1927C2.89408 16.1927 2.84779 16.1913 2.80256 16.1963C2.71442 16.2061 2.66031 16.2559 2.65207 16.3456C2.64382 16.4371 2.69455 16.4933 2.77762 16.5163C2.82052 16.5284 2.86829 16.5259 2.91373 16.5259C5.07576 16.5263 7.23801 16.5261 9.40025 16.5261ZM14.7684 10.5527C14.7684 10.5525 14.7684 10.5525 14.7684 10.5523C14.4448 10.5523 14.121 10.5513 13.7974 10.5525C13.5542 10.5536 13.3777 10.7161 13.3718 10.9417C13.366 11.1568 13.5394 11.3407 13.7776 11.343C14.432 11.3494 15.0863 11.3492 15.7405 11.3428C15.9867 11.3405 16.1541 11.1608 16.1478 10.9353C16.1417 10.7123 15.9637 10.5532 15.7181 10.5527C15.4017 10.5523 15.0851 10.5527 14.7684 10.5527Z" fill="#959595"/>
</svg>