<svg width="20" height="20" viewBox="0 0 20 20" fill="none" xmlns="http://www.w3.org/2000/svg"><script xmlns=""/>
<path d="M16.675 7.6051H16.175H15.5494H15.0494V7.1051V7.10147V7.09784V7.09422V7.0906V7.08699V7.08338V7.07978V7.07618V7.07259V7.06901V7.06543V7.06185V7.05828V7.05472V7.05116V7.04761V7.04406V7.04052V7.03698V7.03345V7.02992V7.0264V7.02288V7.01937V7.01587V7.01237V7.00887V7.00538V7.0019V6.99842V6.99495V6.99148V6.98802V6.98457V6.98111V6.97767V6.97423V6.9708V6.96737V6.96394V6.96053V6.95711V6.95371V6.95031V6.94691V6.94352V6.94013V6.93676V6.93338V6.93001V6.92665V6.92329V6.91994V6.9166V6.91326V6.90992V6.90659V6.90327V6.89995V6.89664V6.89333V6.89003V6.88673V6.88344V6.88016V6.87688V6.87361V6.87034V6.86708V6.86382V6.86057V6.85733V6.85409V6.85086V6.84763V6.84441V6.84119V6.83798V6.83477V6.83157V6.82838V6.82519V6.82201V6.81883V6.81566V6.8125V6.80934V6.80619V6.80304V6.7999V6.79676V6.79363V6.7905V6.78739V6.78427V6.78117V6.77806V6.77497V6.77188V6.76879V6.76572V6.76264V6.75958V6.75652V6.75346V6.75041V6.74737V6.74433V6.7413V6.73827V6.73525V6.73224V6.72923V6.72623V6.72323V6.72024V6.71726V6.71428V6.71131V6.70834V6.70538V6.70243V6.69948V6.69654V6.6936V6.69067V6.68774V6.68482V6.68191V6.679V6.6761V6.67321V6.67032V6.66743V6.66456V6.66169V6.65882V6.65596V6.65311V6.65026V6.64742V6.64459V6.64176V6.63893V6.63612V6.63331V6.6305V6.6277V6.62491V6.62213V6.61934V6.61657V6.6138V6.61104V6.60828V6.60554V6.60279V6.60005V6.59732V6.5946V6.59188V6.58917V6.58646V6.58376V6.58106V6.57838V6.57569V6.57302V6.57035V6.56768V6.56503V6.56238V6.55973V6.55709V6.55446V6.55183V6.54921V6.5466V6.54399V6.54139V6.5388V6.53621V6.53363V6.53105V6.52848V6.52592V6.52336V6.52081V6.51826V6.51572V6.51319V6.51067V6.50815V6.50563V6.50313V6.50063V6.49813V6.49564V6.49316V6.49069V6.48822V6.48576V6.4833V6.48085V6.47841V6.47597V6.47354V6.47112V6.4687V6.46629V6.46388V6.46149V6.45909V6.45671V6.45433V6.45196V6.44959V6.44723V6.44488V6.44253V6.44019V6.43786V6.43553V6.43321V6.43089V6.42859V6.42629V6.42399V6.4217V6.41942V6.41715V6.41488V6.41261V6.41036V6.40811V6.40587V6.40363V6.4014V6.39918V6.39696V6.39475V6.39255V6.39035V6.38816V6.38598V6.3838V6.38163V6.37947V6.37731V6.37516V6.37302V6.37088V6.36875V6.36663V6.36451V6.3624V6.3603V6.3582V6.35611V6.35403V6.35195V6.34988V6.34852H13.9919H13.4919V5.84852C13.4919 4.29864 13.2205 3.62709 13.0303 3.35457C12.9397 3.22464 12.8682 3.18583 12.8482 3.1764C12.8479 3.17628 12.8477 3.17616 12.8474 3.17605H10.4223H9.92225V2.67605V1.59455V1.09455H10.4223H12.3889V0.5H5.21056V1.09455H7.39992H7.89992V1.59455V2.67605V3.17605H7.39992V2.67605L7.39991 3.17605H7.39986H7.39978H7.39967H7.39953H7.39936H7.39916H7.39892H7.39866H7.39837H7.39804H7.39768H7.3973H7.39688H7.39643H7.39596H7.39545H7.39491H7.39434H7.39374H7.39312H7.39246H7.39177H7.39106H7.39031H7.38953H7.38873H7.38789H7.38703H7.38613H7.38521H7.38426H7.38328H7.38227H7.38123H7.38016H7.37907H7.37794H7.37679H7.37561H7.3744H7.37316H7.37189H7.37059H7.36927H7.36792H7.36654H7.36513H7.3637H7.36223H7.36074H7.35922H7.35768H7.3561H7.3545H7.35288H7.35122H7.34954H7.34783H7.34609H7.34433H7.34254H7.34072H7.33887H7.337H7.3351H7.33318H7.33123H7.32925H7.32725H7.32522H7.32316H7.32108H7.31897H7.31684H7.31468H7.31249H7.31028H7.30804H7.30578H7.30349H7.30118H7.29884H7.29648H7.29409H7.29167H7.28923H7.28677H7.28428H7.28176H7.27922H7.27666H7.27407H7.27146H7.26882H7.26616H7.26347H7.26076H7.25802H7.25527H7.25248H7.24968H7.24684H7.24399H7.24111H7.23821H7.23528H7.23233H7.22936H7.22636H7.22334H7.2203H7.21723H7.21414H7.21103H7.2079H7.20474H7.20156H7.19835H7.19513H7.19188H7.18861H7.18531H7.182H7.17866H7.1753H7.17191H7.16851H7.16508H7.16163H7.15816H7.15467H7.15115H7.14762H7.14406H7.14048H7.13688H7.13326H7.12962H7.12595H7.12227H7.11856H7.11483H7.11108H7.10731H7.10352H7.09971H7.09588H7.09203H7.08816H7.08426H7.08035H7.07642H7.07246H7.06849H7.0645H7.06048H7.05645H7.0524H7.04832H7.04423H7.04012H7.03599H7.03183H7.02766H7.02347H7.01926H7.01504H7.01079H7.00652H7.00224H6.99793H6.99361H6.98927H6.98491H6.98053H6.97613H6.97171H6.96728H6.96283H6.95836H6.95387H6.94936H6.94484H6.94029H6.93573H6.93115H6.92656H6.92194H6.91731H6.91266H6.908H6.90331H6.89861H6.89389H6.88916H6.88441H6.87964H6.87485H6.87005H6.86523H6.86039H6.85554H6.85067H6.84579H6.84088H6.83596H6.83103H6.82608H6.82111H6.81613H6.81113H6.80612H6.80108H6.79604H6.79098H6.7859H6.78081H6.7757H6.77057H6.76543H6.76028H6.75511H6.74993H6.74473H6.73951H6.73428H6.72904H6.72378H6.71851H6.71322H6.70792H6.7026H6.69727H6.69192H6.68656H6.68119H6.6758H6.6704H6.66499H6.65956H6.65411H6.64866H6.64319H6.6377H6.63221H6.62669H6.62117H6.61563H6.61008H6.60452H6.59894H6.59335H6.58775H6.58214H6.57651H6.57087H6.56521H6.55955H6.55387H6.54818H6.54248H6.53676H6.53104H6.5253H6.51955H6.51378H6.50801H6.50222H6.49642H6.49061H6.48479H6.47896H6.47311H6.46726H6.46139H6.45551H6.44962H6.44372H6.43781H6.43189H6.42596H6.42001H6.41406H6.40809H6.40212H6.39613H6.39014H6.38413H6.37811H6.37209H6.36605H6.36H6.35394H6.34788H6.3418H6.33571H6.32962H6.32351H6.3174H6.31127H6.30514H6.299H6.29284H6.28668H6.28051H6.27433H6.26814H6.26194H6.25574H6.24952H6.2433H6.23707H6.23083H6.22458H6.21832H6.21206H6.20578H6.1995H6.19321H6.18691H6.18061H6.17429H6.16797H6.16164H6.15531H6.14896H6.14261H6.13625H6.12988H6.12351H6.11713H6.11074H6.10435H6.09795H6.09154H6.08512H6.0787H6.07227H6.06583H6.05939H6.05294H6.04649H6.04003H6.03356H6.02709H6.02061H6.01412H6.00763H6.00114H5.99463H5.98812H5.98161H5.97509H5.96856H5.96203H5.9555H5.94896H5.94241H5.93586H5.9293H5.92274H5.91617H5.9096H5.90303H5.89644H5.88986H5.88327H5.87668H5.87008H5.86347H5.85687H5.85025H5.84364H5.83702H5.8304H5.82377H5.81714H5.8105H5.80386H5.79722H5.79058H5.78393H5.77727H5.77062H5.76396H5.7573H5.75063H5.74396H5.73729H5.73062H5.72394H5.71726H5.71058H5.7039H5.69721H5.69052H5.68383H5.67713H5.67044H5.66374H5.65704H5.65033H5.64363H5.63692H5.63022H5.62351H5.6168H5.61008H5.60337H5.59665H5.58994H5.58322H5.5765H5.56978H5.56306H5.55633H5.54961H5.54289H5.53616H5.52944H5.52271H5.51598H5.50926H5.50253H5.4958H5.48907H5.48235H5.47562H5.46889H5.46216H5.45543H5.44871H5.44198H5.43525H5.42853H5.4218H5.41507H5.40835H5.40163H5.3949H5.38818H5.38146H5.37474H5.36802H5.3613H5.35458H5.34787H5.34115H5.33444H5.32773H5.32102H5.31431H5.30761H5.3009H5.2942H5.2875H5.2808H5.27411H5.26741H5.26072H5.25403H5.24734H5.24066H5.23398H5.2273H5.22062H5.21395H5.20728H5.20061H5.19394H5.18728H5.18062H5.17397H5.16731H5.16067H5.15402H5.14738H5.1473L3.80796 4.66878L3.65894 4.83487H3.4358H2.36438C2.35046 4.86635 2.33647 4.91655 2.33647 4.9831V9.14621V9.64621H1.83647H1.09533H0.595335V9.14621V5.19943H0.5V15.3646H0.595335V11.2682V10.7682H1.09533H1.83647H2.33647V11.2682V15.5798C2.33647 15.6464 2.35046 15.6966 2.36438 15.728H3.4358H3.64894L3.79652 15.8818L7.26947 19.5H7.27547H7.28307H7.29079H7.29864H7.3066H7.31467H7.32287H7.33118H7.3396H7.34815H7.3568H7.36557H7.37446H7.38345H7.39256H7.40179H7.41112H7.42056H7.43012H7.43978H7.44956H7.45944H7.46943H7.47953H7.48974H7.50005H7.51047H7.521H7.53163H7.54236H7.5532H7.56414H7.57519H7.58633H7.59758H7.60893H7.62038H7.63194H7.64359H7.65534H7.66719H7.67913H7.69118H7.70332H7.71556H7.72789H7.74032H7.75284H7.76546H7.77817H7.79098H7.80387H7.81686H7.82995H7.84312H7.85638H7.86973H7.88318H7.89671H7.91033H7.92403H7.93783H7.95171H7.96568H7.97973H7.99387H8.00809H8.0224H8.03679H8.05126H8.06582H8.08046H8.09518H8.10997H8.12486H8.13982H8.15485H8.16997H8.18517H8.20044H8.21579H8.23122H8.24672H8.2623H8.27795H8.29368H8.30948H8.32536H8.3413H8.35732H8.37341H8.38958H8.40581H8.42211H8.43848H8.45492H8.47143H8.48801H8.50465H8.52137H8.53814H8.55499H8.5719H8.58887H8.60591H8.62301H8.64017H8.6574H8.67469H8.69204H8.70945H8.72692H8.74445H8.76204H8.77969H8.79739H8.81516H8.83298H8.85086H8.86879H8.88678H8.90482H8.92292H8.94107H8.95928H8.97754H8.99585H9.01421H9.03263H9.05109H9.0696H9.08817H9.10678H9.12544H9.14415H9.16291H9.18171H9.20056H9.21946H9.2384H9.25738H9.27641H9.29548H9.3146H9.33376H9.35296H9.3722H9.39149H9.41081H9.43017H9.44957H9.46902H9.48849H9.50801H9.52757H9.54716H9.56678H9.58645H9.60614H9.62588H9.64564H9.66544H9.68527H9.70514H9.72503H9.74496H9.76492H9.7849H9.80492H9.82497H9.84504H9.86515H9.88528H9.90543H9.92562H9.94583H9.96606H9.98632H10.0066H10.0269H10.0472H10.0676H10.088H10.1084H10.1288H10.1492H10.1697H10.1902H10.2107H10.2312H10.2517H10.2722H10.2928H10.3134H10.334H10.3546H10.3752H10.3959H10.4165H10.4372H10.4579H10.4786H10.4993H10.52H10.5407H10.5614H10.5822H10.6029H10.6237H10.6444H10.6652H10.686H10.7068H10.7276H10.7484H10.7692H10.79H10.8108H10.8316H10.8524H10.8732H10.894H10.9148H10.9357H10.9565H10.9773H10.9981H11.0189H11.0397H11.0605H11.0813H11.1021H11.1229H11.1437H11.1644H11.1852H11.206H11.2267H11.2475H11.2682H11.289H11.3097H11.3304H11.3511H11.3718H11.3925H11.4131H11.4338H11.4544H11.475H11.4956H11.5162H11.5368H11.5574H11.5779H11.5984H11.6189H11.6394H11.6599H11.6804H11.7008H11.7212H11.7416H11.762H11.7823H11.8026H11.8229H11.8432H11.8635H11.8837H11.9039H11.9241H11.9442H11.9643H11.9844H12.0045H12.0245H12.0446H12.0645H12.0845H12.1044H12.1243H12.1441H12.164H12.1838H12.2035H12.2232H12.2429H12.2626H12.2822H12.3018H12.3213H12.3408H12.3603H12.3797H12.3991H12.4185H12.4378H12.457H12.4763H12.4955H12.5146H12.5337H12.5528H12.5718H12.5908H12.6097H12.6286H12.6474H12.6662H12.685H12.7036H12.7223H12.7409H12.7594H12.7779H12.7964H12.8148H12.8331H12.8514H12.8697H12.8879H12.906H12.9241H12.9421H12.9601H12.978H12.9959H13.0137H13.0314H13.0491H13.0668H13.0843H13.1018H13.1193H13.1367H13.154H13.1713H13.1885H13.2057H13.2227H13.2398H13.2567H13.2736H13.2904H13.3072H13.3239H13.3405H13.3571H13.3736H13.39H13.4063H13.4226H13.4388H13.455H13.471H13.487H13.503H13.5188H13.5346H13.5503H13.5659H13.5815H13.597H13.6124H13.6277H13.643H13.6581H13.6732H13.6883H13.7032H13.718H13.7328H13.7475H13.7621H13.7767H13.7911H13.8055H13.8198H13.834H13.8481H13.8621H13.8761H13.8899H13.9037H13.9174H13.931H13.9445H13.9579H13.9712H13.9845H13.9976H14.0107H14.0236H14.0365H14.0493H14.062H14.0746H14.0871H14.0995H14.1118H14.124H14.1361H14.1481H14.16H14.1718H14.1836H14.1952H14.2067H14.2181H14.2295H14.2407H14.2518H14.2628H14.2737H14.2845H14.2952H14.3058H14.3163H14.3267H14.337H14.3472H14.3573H14.3672H14.3771H14.3868H14.3965H14.406H14.4154H14.4247H14.4339H14.443H14.4519H14.4608H14.4695H14.4782H14.4867H14.4951H14.5033H14.5115H14.5195H14.5275H14.5353H14.543H14.5505H14.558H14.5653H14.5725H14.5796H14.5866H14.5934H14.6002H14.6067H14.6132H14.6196H14.6258H14.6319C14.7758 19.5 14.8405 19.4592 14.8762 19.4273C14.9218 19.3866 14.9659 19.317 14.9995 19.2107C15.0327 19.1056 15.0468 18.9919 15.0512 18.8984C15.0533 18.8531 15.0531 18.8161 15.0523 18.7919C15.052 18.7799 15.0515 18.7713 15.0513 18.7667L15.0511 18.7643L15.0511 18.7634L15.051 18.7634L15.051 18.7629L15.0494 18.744V18.7224H15.5494L16.675 7.6051ZM16.675 7.6051V7.1051M16.675 7.6051V7.1051M16.675 7.1051V6.47681C16.675 6.40999 16.6891 6.35934 16.7032 6.32747H18.757C18.7647 6.34114 18.773 6.35678 18.7817 6.37445C18.8116 6.43457 18.8373 6.49815 18.8561 6.54884C18.8652 6.57356 18.8722 6.59382 18.8767 6.60724L18.8814 6.62164L18.882 6.6236C18.882 6.62352 18.882 6.62344 19.36 6.47681M16.675 7.1051L19.36 6.47681M19.36 6.47681L20 9.19386V15.4989L19.36 18.2149M19.36 6.47681V18.2149M15.0494 16.2821H15.5494H15.0494ZM15.0494 16.2821V16.7821M15.0494 16.2821V16.7821M15.0494 16.7821V16.7889M15.0494 16.7821V16.7889M16.175 16.7821H16.675V16.2821H16.175V16.7821ZM16.175 16.7821V18.2149C16.175 18.5739 16.3741 18.8642 16.6196 18.8642H18.9145C19.1608 18.8642 19.36 18.2149 19.36 18.2149M16.175 16.7821L19.36 18.2149M15.0494 16.7889V16.7957M15.0494 16.7889V16.7957M15.0494 16.7957V16.8026M15.0494 16.7957V16.8026M15.0494 16.8026V16.8094M15.0494 16.8026V16.8094M15.0494 16.8094V16.8162M15.0494 16.8094V16.8162M15.0494 16.8162V16.823M15.0494 16.8162V16.823M15.0494 16.823V16.8297M15.0494 16.823V16.8297M15.0494 16.8297V16.8365M15.0494 16.8297V16.8365M15.0494 16.8365V16.8433M15.0494 16.8365V16.8433M15.0494 16.8433V16.85M15.0494 16.8433V16.85M15.0494 16.85V16.8567M15.0494 16.85V16.8567M15.0494 16.8567V16.8635M15.0494 16.8567V16.8635M15.0494 16.8635V16.8702M15.0494 16.8635V16.8702M15.0494 16.8702V16.8769M15.0494 16.8702V16.8769M15.0494 16.8769V16.8836M15.0494 16.8769V16.8836M15.0494 16.8836V16.8903M15.0494 16.8836V16.8903M15.0494 16.8903V16.897M15.0494 16.8903V16.897M15.0494 16.897V16.9037M15.0494 16.897V16.9037M15.0494 16.9037V16.9103M15.0494 16.9037V16.9103M15.0494 16.9103V16.917M15.0494 16.9103V16.917M15.0494 16.917V16.9237M15.0494 16.917V16.9237M15.0494 16.9237V16.9303M15.0494 16.9237V16.9303M15.0494 16.9303V16.9369M15.0494 16.9303V16.9369M15.0494 16.9369V16.9435M15.0494 16.9369V16.9435M15.0494 16.9435V16.9502M15.0494 16.9435V16.9502M15.0494 16.9502V16.9568M15.0494 16.9502V16.9568M15.0494 16.9568V16.9634M15.0494 16.9568V16.9634M15.0494 16.9634V16.9699M15.0494 16.9634V16.9699M15.0494 16.9699V16.9765M15.0494 16.9699V16.9765M15.0494 16.9765V16.9831M15.0494 16.9765V16.9831M15.0494 16.9831V16.9896M15.0494 16.9831V16.9896M15.0494 16.9896V16.9962M15.0494 16.9896V16.9962M15.0494 16.9962V17.0027M15.0494 16.9962V17.0027M15.0494 17.0027V17.0092M15.0494 17.0027V17.0092M15.0494 17.0092V17.0157M15.0494 17.0092V17.0157M15.0494 17.0157V17.0223M15.0494 17.0157V17.0223M15.0494 17.0223V17.0287M15.0494 17.0223V17.0287M15.0494 17.0287V17.0352M15.0494 17.0287V17.0352M15.0494 17.0352V17.0417M15.0494 17.0352V17.0417M15.0494 17.0417V17.0482M15.0494 17.0417V17.0482M15.0494 17.0482V17.0546M15.0494 17.0482V17.0546M15.0494 17.0546V17.0611M15.0494 17.0546V17.0611M15.0494 17.0611V17.0675M15.0494 17.0611V17.0675M15.0494 17.0675V17.074M15.0494 17.0675V17.074M15.0494 17.074V17.0804M15.0494 17.074V17.0804M15.0494 17.0804V17.0868M15.0494 17.0804V17.0868M15.0494 17.0868V17.0932M15.0494 17.0868V17.0932M15.0494 17.0932V17.0996M15.0494 17.0932V17.0996M15.0494 17.0996V17.106M15.0494 17.0996V17.106M15.0494 17.106V17.1123M15.0494 17.106V17.1123M15.0494 17.1123V17.1187M15.0494 17.1123V17.1187M15.0494 17.1187V17.125M15.0494 17.1187V17.125M15.0494 17.125V17.1314M15.0494 17.125V17.1314M15.0494 17.1314V17.1377M15.0494 17.1314V17.1377M15.0494 17.1377V17.144M15.0494 17.1377V17.144M15.0494 17.144V17.1503M15.0494 17.144V17.1503M15.0494 17.1503V17.1566M15.0494 17.1503V17.1566M15.0494 17.1566V17.1629M15.0494 17.1566V17.1629M15.0494 17.1629V17.1692M15.0494 17.1629V17.1692M15.0494 17.1692V17.1755M15.0494 17.1692V17.1755M15.0494 17.1755V17.1817M15.0494 17.1755V17.1817M15.0494 17.1817V17.188M15.0494 17.1817V17.188M15.0494 17.188V17.1942M15.0494 17.188V17.1942M15.0494 17.1942V17.2005M15.0494 17.1942V17.2005M15.0494 17.2005V17.2067M15.0494 17.2005V17.2067M15.0494 17.2067V17.2129M15.0494 17.2067V17.2129M15.0494 17.2129V17.2191M15.0494 17.2129V17.2191M15.0494 17.2191V17.2253M15.0494 17.2191V17.2253M15.0494 17.2253V17.2315M15.0494 17.2253V17.2315M15.0494 17.2315V17.2376M15.0494 17.2315V17.2376M15.0494 17.2376V17.2438M15.0494 17.2376V17.2438M15.0494 17.2438V17.25M15.0494 17.2438V17.25M15.0494 17.25V17.2561M15.0494 17.25V17.2561M15.0494 17.2561V17.2622M15.0494 17.2561V17.2622M15.0494 17.2622V17.2683M15.0494 17.2622V17.2683M15.0494 17.2683V17.2744M15.0494 17.2683V17.2744M15.0494 17.2744V17.2805M15.0494 17.2744V17.2805M15.0494 17.2805V17.2866M15.0494 17.2805V17.2866M15.0494 17.2866V17.2927M15.0494 17.2866V17.2927M15.0494 17.2927V17.2988M15.0494 17.2927V17.2988M15.0494 17.2988V17.3048M15.0494 17.2988V17.3048M15.0494 17.3048V17.3109M15.0494 17.3048V17.3109M15.0494 17.3109V17.3169M15.0494 17.3109V17.3169M15.0494 17.3169V17.3229M15.0494 17.3169V17.3229M15.0494 17.3229V17.329M15.0494 17.3229V17.329M15.0494 17.329V17.335M15.0494 17.329V17.335M15.0494 17.335V17.341M15.0494 17.335V17.341M15.0494 17.341V17.3469M15.0494 17.341V17.3469M15.0494 17.3469V17.3529M15.0494 17.3469V17.3529M15.0494 17.3529V17.3589M15.0494 17.3529V17.3589M15.0494 17.3589V17.3648M15.0494 17.3589V17.3648M15.0494 17.3648V17.3708M15.0494 17.3648V17.3708M15.0494 17.3708V17.3767M15.0494 17.3708V17.3767M15.0494 17.3767V17.3826M15.0494 17.3767V17.3826M15.0494 17.3826V17.3885M15.0494 17.3826V17.3885M15.0494 17.3885V17.3944M15.0494 17.3885V17.3944M15.0494 17.3944V17.4003M15.0494 17.3944V17.4003M15.0494 17.4003V17.4062M15.0494 17.4003V17.4062M15.0494 17.4062V17.4121M15.0494 17.4062V17.4121M15.0494 17.4121V17.4179M15.0494 17.4121V17.4179M15.0494 17.4179V17.4238M15.0494 17.4179V17.4238M15.0494 17.4238V17.4296M15.0494 17.4238V17.4296M15.0494 17.4296V17.4354M15.0494 17.4296V17.4354M15.0494 17.4354V17.4412M15.0494 17.4354V17.4412M15.0494 17.4412V17.4471M15.0494 17.4412V17.4471M15.0494 17.4471V17.4528M15.0494 17.4471V17.4528M15.0494 17.4528V17.4586M15.0494 17.4528V17.4586M15.0494 17.4586V17.4644M15.0494 17.4586V17.4644M15.0494 17.4644V17.4702M15.0494 17.4644V17.4702M15.0494 17.4702V17.4759M15.0494 17.4702V17.4759M15.0494 17.4759V17.4816M15.0494 17.4759V17.4816M15.0494 17.4816V17.4874M15.0494 17.4816V17.4874M15.0494 17.4874V17.4931M15.0494 17.4874V17.4931M15.0494 17.4931V17.4988M15.0494 17.4931V17.4988M15.0494 17.4988V17.5045M15.0494 17.4988V17.5045M15.0494 17.5045V17.5102M15.0494 17.5045V17.5102M15.0494 17.5102V17.5158M15.0494 17.5102V17.5158M15.0494 17.5158V17.5215M15.0494 17.5158V17.5215M15.0494 17.5215V17.5272M15.0494 17.5215V17.5272M15.0494 17.5272V17.5328M15.0494 17.5272V17.5328M15.0494 17.5328V17.5384M15.0494 17.5328V17.5384M15.0494 17.5384V17.544M15.0494 17.5384V17.544M15.0494 17.544V17.5496M15.0494 17.544V17.5496M15.0494 17.5496V17.5552M15.0494 17.5496V17.5552M15.0494 17.5552V17.5608M15.0494 17.5552V17.5608M15.0494 17.5608V17.5664M15.0494 17.5608V17.5664M15.0494 17.5664V17.572M15.0494 17.5664V17.572M15.0494 17.572V17.5775M15.0494 17.572V17.5775M15.0494 17.5775V17.5831M15.0494 17.5775V17.5831M15.0494 17.5831V17.5886M15.0494 17.5831V17.5886M15.0494 17.5886V17.5941M15.0494 17.5886V17.5941M15.0494 17.5941V17.5996M15.0494 17.5941V17.5996M15.0494 17.5996V17.6051M15.0494 17.5996V17.6051M15.0494 17.6051V17.6106M15.0494 17.6051V17.6106M15.0494 17.6106V17.6161M15.0494 17.6106V17.6161M15.0494 17.6161V17.6215M15.0494 17.6161V17.6215M15.0494 17.6215V17.627M15.0494 17.6215V17.627M15.0494 17.627V17.6324M15.0494 17.627V17.6324M15.0494 17.6324V17.6378M15.0494 17.6324V17.6378M15.0494 17.6378V17.6432M15.0494 17.6378V17.6432M15.0494 17.6432V17.6487M15.0494 17.6432V17.6487M15.0494 17.6487V17.654M15.0494 17.6487V17.654M15.0494 17.654V17.6594M15.0494 17.654V17.6594M15.0494 17.6594V17.6648M15.0494 17.6594V17.6648M15.0494 17.6648V17.6702M15.0494 17.6648V17.6702M15.0494 17.6702V17.6755M15.0494 17.6702V17.6755M15.0494 17.6755V17.6808M15.0494 17.6755V17.6808M15.0494 17.6808V17.6862M15.0494 17.6808V17.6862M15.0494 17.6862V17.6915M15.0494 17.6862V17.6915M15.0494 17.6915V17.6968M15.0494 17.6915V17.6968M15.0494 17.6968V17.7021M15.0494 17.6968V17.7021M15.0494 17.7021V17.7073M15.0494 17.7021V17.7073M15.0494 17.7073V17.7126M15.0494 17.7073V17.7126M15.0494 17.7126V17.7179M15.0494 17.7126V17.7179M15.0494 17.7179V17.7231M15.0494 17.7179V17.7231M15.0494 17.7231V17.7283M15.0494 17.7231V17.7283M15.0494 17.7283V17.7336M15.0494 17.7283V17.7336M15.0494 17.7336V17.7388M15.0494 17.7336V17.7388M15.0494 17.7388V17.744M15.0494 17.7388V17.744M15.0494 17.744V17.7491M15.0494 17.744V17.7491M15.0494 17.7491V17.7543M15.0494 17.7491V17.7543M15.0494 17.7543V17.7595M15.0494 17.7543V17.7595M15.0494 17.7595V17.7646M15.0494 17.7595V17.7646M15.0494 17.7646V17.7698M15.0494 17.7646V17.7698M15.0494 17.7698V17.7749M15.0494 17.7698V17.7749M15.0494 17.7749V17.78V17.7749Z" fill="#FEFEFE" stroke="#959595"/>
</svg>