<svg width="28" height="19" viewBox="0 0 28 19" fill="none" xmlns="http://www.w3.org/2000/svg"><script xmlns=""/>
<path d="M14 0C7.77703 0 2.44254 3.7671 0.150729 9.13364C0.0508285 9.36757 0.0508286 9.63243 0.150729 9.86636C2.44254 15.2329 7.77703 19 14 19C20.223 19 25.5575 15.2329 27.8493 9.86636C27.9492 9.63243 27.9492 9.36757 27.8493 9.13364C25.5575 3.7671 20.223 0 14 0ZM14 15.8333C10.4873 15.8333 7.63636 12.996 7.63636 9.5C7.63636 6.004 10.4873 3.16667 14 3.16667C17.5127 3.16667 20.3636 6.004 20.3636 9.5C20.3636 12.996 17.5127 15.8333 14 15.8333ZM14 5.7C11.8873 5.7 10.1818 7.39733 10.1818 9.5C10.1818 11.6027 11.8873 13.3 14 13.3C16.1127 13.3 17.8182 11.6027 17.8182 9.5C17.8182 7.39733 16.1127 5.7 14 5.7Z" fill="#111111"/>
</svg>