<svg width="20" height="21" viewBox="0 0 20 21" fill="none" xmlns="http://www.w3.org/2000/svg"><script xmlns=""/>
<path d="M14.6359 1.33714L12.3215 1.33333C9.72134 1.33333 8.04102 3.10424 8.04102 5.84519V7.92545H5.71401C5.51293 7.92545 5.3501 8.09291 5.3501 8.29947V11.3135C5.3501 11.5201 5.51312 11.6874 5.71401 11.6874H8.04102V19.2928C8.04102 19.4994 8.20386 19.6667 8.40494 19.6667H11.441C11.6421 19.6667 11.8049 19.4992 11.8049 19.2928V11.6874H14.5258C14.7268 11.6874 14.8897 11.5201 14.8897 11.3135L14.8908 8.29947C14.8908 8.20029 14.8524 8.10531 14.7842 8.03512C14.7161 7.96494 14.6232 7.92545 14.5267 7.92545H11.8049V6.16198C11.8049 5.31439 12.0016 4.88411 13.0764 4.88411L14.6355 4.88354C14.8364 4.88354 14.9992 4.71608 14.9992 4.50971V1.71097C14.9992 1.50479 14.8366 1.33752 14.6359 1.33714Z" fill="#787A80"/>
</svg>