<svg width="16" height="16" viewBox="0 0 16 16" fill="none" xmlns="http://www.w3.org/2000/svg"><script xmlns=""/>
<path fill-rule="evenodd" clip-rule="evenodd" d="M7.9995 13.2718C4.93345 11.5255 3.22342 9.78986 2.39651 8.28391C1.55017 6.74259 1.62401 5.4444 2.09365 4.52304C3.05896 2.62922 5.80403 2.02363 7.47654 4.13895L7.99946 4.80032L8.52242 4.13899C10.1952 2.02358 12.9404 2.62926 13.9057 4.52304C14.3754 5.44439 14.4492 6.74256 13.6028 8.2839C12.7758 9.78985 11.0657 11.5255 7.9995 13.2718ZM7.99952 2.73756C5.64671 0.501824 2.17579 1.42585 0.905732 3.91754C0.208704 5.28501 0.199183 7.05243 1.22778 8.92566C2.24724 10.7823 4.27985 12.742 7.677 14.6197L7.99949 14.7979L8.32198 14.6197C11.7193 12.742 13.752 10.7823 14.7715 8.92568C15.8002 7.05245 15.7907 5.28502 15.0936 3.91753C13.8236 1.4258 10.3525 0.501857 7.99952 2.73756Z" fill="#17696A"/>
</svg>