<svg width="20" height="21" viewBox="0 0 20 21" fill="none" xmlns="http://www.w3.org/2000/svg"><script xmlns=""/>
<path d="M10.2512 1.33333C5.19014 1.33409 2.5 4.55393 2.5 8.06481C2.5 9.69268 3.4162 11.7239 4.8832 12.3679C5.30168 12.555 5.24629 12.3266 5.60631 10.9592C5.63478 10.8454 5.62016 10.7469 5.52785 10.6407C3.43082 8.23211 5.1186 3.28051 9.95192 3.28051C16.9469 3.28051 15.6399 12.8919 11.1689 12.8919C10.0165 12.8919 9.15803 11.9935 9.42959 10.8821C9.75883 9.55824 10.4035 8.13509 10.4035 7.18098C10.4035 4.77622 6.7956 5.13297 6.7956 8.31919C6.7956 9.30386 7.14639 9.96845 7.14639 9.96845C7.14639 9.96845 5.98556 14.6252 5.77017 15.4953C5.40553 16.9681 5.8194 19.3522 5.85556 19.5577C5.87787 19.6707 6.00556 19.7066 6.07711 19.6134C6.19173 19.4645 7.59488 17.4768 7.98797 16.0399C8.13106 15.5167 8.71801 13.393 8.71801 13.393C9.10495 14.0866 10.2204 14.6672 11.4089 14.6672C14.9445 14.6672 17.5 11.581 17.5 7.75161C17.4877 4.08031 14.3237 1.33333 10.2512 1.33333V1.33333Z" fill="#787A80"/>
</svg>