<svg width="51" height="51" viewBox="0 0 51 51" fill="none" xmlns="http://www.w3.org/2000/svg"><script xmlns=""/>
<path fill-rule="evenodd" clip-rule="evenodd" d="M25.375 42.5156C34.738 42.5156 42.3281 34.9255 42.3281 25.5625C42.3281 16.1995 34.738 8.60938 25.375 8.60938C16.012 8.60938 8.42188 16.1995 8.42188 25.5625C8.42188 34.9255 16.012 42.5156 25.375 42.5156ZM25.375 50.5625C39.1821 50.5625 50.375 39.3696 50.375 25.5625C50.375 11.7554 39.1821 0.5625 25.375 0.5625C11.5679 0.5625 0.375 11.7554 0.375 25.5625C0.375 39.3696 11.5679 50.5625 25.375 50.5625ZM25.375 9.03906C27.5971 9.03906 29.3984 10.8404 29.3984 13.0625V21.5391H37.875C40.0971 21.5391 41.8984 23.3404 41.8984 25.5625C41.8984 27.7846 40.0971 29.5859 37.875 29.5859H29.3984V38.0625C29.3984 40.2846 27.5971 42.0859 25.375 42.0859C23.1529 42.0859 21.3516 40.2846 21.3516 38.0625V29.5859H12.875C10.6529 29.5859 8.85156 27.7846 8.85156 25.5625C8.85156 23.3404 10.6529 21.5391 12.875 21.5391H21.3516V13.0625C21.3516 10.8404 23.1529 9.03906 25.375 9.03906Z" fill="#627D98"/>
</svg>