<svg width="20" height="21" viewBox="0 0 20 21" fill="none" xmlns="http://www.w3.org/2000/svg"><script xmlns=""/>
<path d="M18.75 5.31041C18.1059 5.58369 17.4148 5.76902 16.6887 5.85176C17.4301 5.42663 17.9976 4.75232 18.2666 3.95129C17.5711 4.34499 16.8035 4.63086 15.9855 4.78583C15.3305 4.11675 14.3988 3.7 13.3653 3.7C11.3827 3.7 9.77523 5.23922 9.77523 7.13654C9.77523 7.40563 9.80694 7.66845 9.86819 7.91977C6.88501 7.7763 4.23973 6.40777 2.46928 4.32823C2.1598 4.83503 1.98374 5.42557 1.98374 6.05593C1.98374 7.24858 2.618 8.3009 3.58033 8.91657C2.992 8.89773 2.43866 8.74276 1.95423 8.48517V8.5281C1.95423 10.193 3.19213 11.5824 4.83353 11.8987C4.5328 11.9762 4.21568 12.0191 3.88761 12.0191C3.6558 12.0191 3.43161 11.9971 3.2118 11.9552C3.66889 13.3217 4.99429 14.3154 6.56463 14.3426C5.33657 15.264 3.7881 15.8117 2.10624 15.8117C1.81646 15.8117 1.53103 15.7949 1.25 15.7645C2.83893 16.7415 4.7253 17.3111 6.75273 17.3111C13.3566 17.3111 16.9665 12.0736 16.9665 7.53131L16.9544 7.0863C17.6597 6.6046 18.2699 5.9994 18.75 5.31041Z" fill="#787A80"/>
</svg>